<svg width="69" height="19" viewBox="0 0 69 19" fill="none" xmlns="http://www.w3.org/2000/svg">
<path d="M14.4134 18.6889V0.648021H18.3626V18.6889H14.4134ZM8.85431 3.93997V0.388813H23.9217V3.93997L16.4761 6.0914L8.85431 3.93997Z" fill="white"/>
<path d="M27.8879 18.6889V0.388813H30.7051L37.698 11.6126H36.2642L43.232 0.388813H46.0744V18.6889H42.1252V7.25784L42.8295 7.43929L38.2766 14.749H35.6605L31.1328 7.43929L31.8119 7.25784V18.6889H27.8879Z" fill="white"/>
<path d="M59.7181 19C58.3765 19 57.1356 18.7581 55.9952 18.2742C54.8717 17.7904 53.8823 17.1164 53.027 16.2524C52.1718 15.3884 51.5094 14.3861 51.0398 13.2456C50.5703 12.0878 50.3355 10.8436 50.3355 9.51296C50.3355 8.16507 50.5703 6.92087 51.0398 5.78035C51.5094 4.63984 52.1634 3.6462 53.0019 2.79945C53.8403 1.93542 54.8214 1.27012 55.9449 0.803546C57.0852 0.31969 58.3262 0.0777616 59.6678 0.0777616C60.9925 0.0777616 62.2167 0.31969 63.3403 0.803546C64.4806 1.27012 65.47 1.93542 66.3085 2.79945C67.1637 3.6462 67.8261 4.64848 68.2957 5.80628C68.7652 6.94679 69 8.191 69 9.53888C69 10.8695 68.7652 12.1137 68.2957 13.2715C67.8261 14.412 67.1721 15.4143 66.3336 16.2783C65.4952 17.1251 64.5058 17.7904 63.3654 18.2742C62.2419 18.7581 61.0261 19 59.7181 19ZM59.6678 15.2933C60.7242 15.2933 61.6466 15.0514 62.4347 14.5675C63.2397 14.0837 63.8601 13.4097 64.2961 12.5457C64.7322 11.6644 64.9502 10.6535 64.9502 9.51296C64.9502 8.64893 64.8244 7.8713 64.5728 7.18008C64.3213 6.47158 63.9608 5.86676 63.4912 5.36562C63.0217 4.8472 62.4599 4.45839 61.8059 4.19918C61.1686 3.92269 60.4559 3.78445 59.6678 3.78445C58.6113 3.78445 57.6806 4.02637 56.8756 4.51023C56.0875 4.97681 55.4754 5.64211 55.0394 6.50614C54.6034 7.35289 59.4899 8.35516 59.4899 9.51296C59.4899 10.377 54.5111 11.1633 54.7627 11.8718C55.0142 12.5803 55.3664 13.1937 55.8191 13.7121C56.2887 14.2133 56.8505 14.6021 57.5045 14.8786C58.1585 15.1551 58.8796 15.2933 59.6678 15.2933Z" fill="white"/>
<path d="M0.150926 18.6889V6.0914L3.99953 7.25784V18.6889H0.150926ZM2.01234 5.44338C1.40864 5.44338 0.981018 4.14734 0.578549 3.73261C0.19285 3.30059 0 2.78217 0 2.17735C0 1.55525 0.19285 1.03683 0.578549 0.622101C0.981018 0.207367 1.4841 0 2.08781 0C2.69151 0 3.18621 0.207367 3.57191 0.622101C3.95761 1.03683 4.15046 1.55525 4.15046 2.17735C4.15046 2.78217 3.95761 3.30059 3.57191 3.73261C3.18621 4.14734 2.61605 5.44338 2.01234 5.44338Z" fill="#EC9C21"/>
</svg>
